<svg width="65" height="44" viewBox="0 0 65 44" fill="none" xmlns="http://www.w3.org/2000/svg">
<path fill-rule="evenodd" clip-rule="evenodd" d="M33.9936 2.6274C31.3876 4.12403 29.23 5.35806 29.1991 5.36968C29.1682 5.38131 32.1491 10.614 35.8234 16.998L42.5039 28.6051H48.9237H55.3435L55.1882 28.3291C54.828 27.6889 38.874 0.115239 38.8062 0.0156071C38.7402 -0.0813618 38.1966 0.213637 33.9936 2.6274ZM22.9878 12.7337C20.3622 14.247 18.222 15.5163 18.2317 15.5545C18.2414 15.5927 19.9438 18.552 22.0148 22.1308L25.7801 28.6376L25.7803 29.9853L25.7806 31.333H27.1445H28.5084V29.9694V28.6059L33.5108 28.5892L38.5131 28.5726L33.1476 19.2849C30.1965 14.1766 27.7774 9.99386 27.7718 9.98984C27.7661 9.98574 25.6133 11.2206 22.9878 12.7337ZM11.7557 22.5655C9.16804 24.0646 7.02894 25.3133 7.00212 25.3406C6.97529 25.3678 7.36687 26.1134 7.87237 26.9976L8.7914 28.6051H15.1821C20.268 28.6051 21.5664 28.5885 21.5416 28.5239C21.4648 28.3241 16.5611 19.8707 16.5136 19.8563C16.4844 19.8474 14.3432 21.0665 11.7557 22.5655ZM21.6888 30.9125V33.2199L21.2179 32.9623C19.5585 32.0546 17.5666 32.03 15.8109 32.8956C14.6647 33.4607 13.8372 34.2776 13.2817 35.3923C12.8141 36.3307 12.6951 36.8498 12.7011 37.9253C12.7072 39.0115 12.833 39.568 13.2737 40.4583C14.241 42.4127 16.2535 43.6723 18.4089 43.6723C19.3381 43.6723 20.2469 43.4436 21.1513 42.982L21.6888 42.7078V43.0606V43.4135H23.0527H24.4167V36.0093V28.6051H23.0527H21.6888V30.9125ZM38.5756 30.9027V33.2002L38.1047 32.9491C36.0996 31.8799 33.6194 32.0774 31.8167 33.4499C30.7568 34.2569 29.9813 35.4822 29.7047 36.7871C29.5976 37.2918 29.5856 38.366 29.6808 38.9038C30.223 41.9649 33.0446 44.0254 36.1303 43.6135C36.7827 43.5264 37.8048 43.1835 38.2654 42.8972L38.5756 42.7044V43.0589V43.4135H39.9395H41.3034V36.0093V28.6051H39.9395H38.5756V30.9027ZM4.95447 32.3065C2.76341 32.6159 0.93152 34.1394 0.268 36.2041C-0.581014 38.846 0.645419 41.7773 3.12349 43.029C4.80833 43.8801 6.68218 43.8816 8.39047 43.0333L9.02372 42.7188V43.0661V43.4135H10.3552H11.6866V37.8928V32.3721H10.3552H9.02372V32.789V33.2059L8.40709 32.8919C8.03675 32.7034 7.56224 32.5244 7.21885 32.4438C6.55481 32.2879 5.52725 32.2255 4.95447 32.3065ZM47.1302 32.3087C45.7103 32.533 44.2957 33.3384 43.4526 34.4023C43.017 34.952 42.6471 35.6639 42.432 36.3665C42.271 36.8923 42.2532 37.0457 42.2553 37.8928C42.258 38.9826 42.375 39.5321 42.7878 40.3933C43.5362 41.9548 44.8928 43.0605 46.6292 43.5242C47.2272 43.6839 48.7034 43.6805 49.314 43.518C49.8754 43.3686 50.4206 43.1476 50.8446 42.8976L51.1757 42.7024V43.0579V43.4135H52.5396H53.9035V37.8928V32.3721H52.5396H51.1757V32.8022C51.1757 33.1384 51.1579 33.2179 51.0945 33.166C50.8656 32.979 49.9086 32.5648 49.428 32.4447C48.8007 32.288 47.6808 32.2216 47.1302 32.3087ZM59.1319 32.2848C57.1555 32.5195 55.8202 33.4386 55.3865 34.8627C55.2745 35.2303 55.2562 35.4242 55.281 35.9814C55.3084 36.5986 55.3314 36.6968 55.5546 37.1484C56.1469 38.3467 57.0073 38.7749 59.7231 39.2232C61.0536 39.4429 61.5025 39.5877 61.7595 39.8803C62.1684 40.3461 61.9204 41.0305 61.2103 41.3955C60.917 41.5463 60.8133 41.5624 60.1386 41.5624C59.5544 41.5624 59.3162 41.5344 59.045 41.4339C58.4133 41.1997 57.9878 40.7102 57.8913 40.107L57.8488 39.8413H56.4282H55.0077V40.055C55.0077 40.4007 55.1893 40.9986 55.4381 41.4721C56.2214 42.9628 58.1146 43.777 60.5009 43.6494C63.1742 43.5065 64.7409 42.3021 64.922 40.251C65.0741 38.5294 63.9387 37.2749 61.8165 36.8198C61.4116 36.7329 60.6712 36.5894 60.1711 36.5008C59.0357 36.2997 58.6399 36.1731 58.3488 35.9179C58.0598 35.6647 57.9962 35.3522 58.1622 35.0022C58.2519 34.8132 58.3608 34.7187 58.6402 34.5877C58.9744 34.431 59.0691 34.418 59.8788 34.418C60.7177 34.418 60.7688 34.4258 61.0585 34.5961C61.4202 34.8087 61.6274 35.1192 61.6874 35.5386L61.7314 35.8469L63.1108 35.8644C64.6865 35.8845 64.558 35.9476 64.3902 35.2359C64.1897 34.3851 63.5088 33.4582 62.7423 32.9926C61.8443 32.4471 60.3057 32.1455 59.1319 32.2848ZM25.7806 37.8928V43.4135H27.1445H28.5084V37.8928V32.3721H27.1445H25.7806V37.8928ZM6.62502 34.8799C7.87575 35.251 8.77334 36.2623 8.96903 37.521C9.1192 38.4868 8.78191 39.4266 8.02396 40.1545C6.5452 41.5744 4.22886 41.2976 3.10939 39.5671C2.76627 39.0367 2.6365 38.5011 2.6693 37.7504C2.69281 37.2142 2.72437 37.0816 2.93332 36.6416C3.60625 35.2246 5.209 34.4598 6.62502 34.8799ZM19.2901 34.8788C19.8747 35.0506 20.3688 35.3532 20.7771 35.7897C21.9967 37.0935 21.9596 38.9344 20.689 40.1545C19.4532 41.3411 17.5915 41.3721 16.3384 40.2269C15.7386 39.6787 15.4268 39.0847 15.3237 38.2936C15.1296 36.8039 16.1763 35.2794 17.6688 34.8781C18.1387 34.7517 18.8582 34.752 19.2901 34.8788ZM36.5695 34.9973C37.776 35.487 38.5756 36.667 38.5756 37.9578C38.5756 39.4781 37.4688 40.7569 35.9237 41.0219C34.9114 41.1955 33.932 40.8708 33.1904 40.1158C32.4955 39.4085 32.2426 38.7449 32.2864 37.7443C32.3094 37.2177 32.342 37.08 32.5441 36.6565C32.9469 35.812 33.5967 35.2296 34.4823 34.9189C35.0728 34.7117 35.9468 34.7446 36.5695 34.9973ZM48.8419 34.8799C49.4203 35.0515 49.8178 35.2885 50.2327 35.7092C51.2478 36.7383 51.4601 38.1193 50.8028 39.4173C50.5601 39.8965 49.9053 40.5188 49.3896 40.7601C47.2889 41.7431 44.8711 40.1967 44.8764 37.8734C44.8794 36.5484 45.9247 35.2392 47.2787 34.8648C47.6934 34.7502 48.4285 34.7573 48.8419 34.8799Z" fill="#2D2D2D"/>
</svg>
