<svg width="57" height="58" viewBox="0 0 57 58" fill="none" xmlns="http://www.w3.org/2000/svg">
<path d="M0.927938 57.3469L7.57939 57.3469L7.57939 50.4637L0.927936 50.4637L0.927938 57.3469ZM56.3042 0.884485C56.3042 0.418903 55.9395 0.0414738 55.4896 0.0414741L48.1579 0.0414732C47.708 0.0414733 47.3433 0.418907 47.3433 0.884484C47.3433 1.35007 47.708 1.72749 48.1579 1.72749L54.675 1.7275L54.675 8.47158C54.675 8.93716 55.0397 9.31459 55.4896 9.31459C55.9395 9.3146 56.3043 8.93716 56.3043 8.47158L56.3042 0.884485ZM4.82969 54.5014L56.0656 1.48058L54.9136 0.288386L3.67763 53.3092L4.82969 54.5014Z" fill="#2D2D2D"/>
</svg>
