<svg width="117" height="39" viewBox="0 0 117 39" fill="none" xmlns="http://www.w3.org/2000/svg">
<path d="M49.6729 20.1076C49.6729 25.6048 45.3724 29.6556 40.0947 29.6556C34.8171 29.6556 30.5166 25.6048 30.5166 20.1076C30.5166 14.5716 34.8171 10.5596 40.0947 10.5596C45.3724 10.5596 49.6729 14.5716 49.6729 20.1076ZM45.48 20.1076C45.48 16.6724 42.9876 14.322 40.0947 14.322C37.2019 14.322 34.7095 16.6724 34.7095 20.1076C34.7095 23.5084 37.2019 25.8932 40.0947 25.8932C42.9876 25.8932 45.48 23.5041 45.48 20.1076Z" fill="#2D2D2D"/>
<path d="M70.3359 20.1076C70.3359 25.6048 66.0354 29.6556 60.7578 29.6556C55.4801 29.6556 51.1796 25.6048 51.1796 20.1076C51.1796 14.5759 55.4801 10.5596 60.7578 10.5596C66.0354 10.5596 70.3359 14.5716 70.3359 20.1076ZM66.143 20.1076C66.143 16.6724 63.6506 14.322 60.7578 14.322C57.865 14.322 55.3725 16.6724 55.3725 20.1076C55.3725 23.5084 57.865 25.8932 60.7578 25.8932C63.6506 25.8932 66.143 23.5041 66.143 20.1076Z" fill="#2D2D2D"/>
<path d="M90.1378 11.1364V28.2781C90.1378 35.3293 85.9794 38.2092 81.0633 38.2092C76.4357 38.2092 73.6505 35.114 72.6001 32.5828L76.2506 31.0632C76.9006 32.6173 78.4934 34.4511 81.059 34.4511C84.2058 34.4511 86.1559 32.5097 86.1559 28.8549V27.4817H86.0095C85.0711 28.6397 83.2631 29.6513 80.9815 29.6513C76.2075 29.6513 71.8339 25.4929 71.8339 20.142C71.8339 14.7524 76.2075 10.5596 80.9815 10.5596C83.2588 10.5596 85.0668 11.5712 86.0095 12.6947H86.1559V11.1407H90.1378V11.1364ZM86.4529 20.142C86.4529 16.78 84.2101 14.3219 81.356 14.3219C78.4632 14.3219 76.0396 16.78 76.0396 20.142C76.0396 23.4696 78.4632 25.8932 81.356 25.8932C84.2101 25.8932 86.4529 23.4696 86.4529 20.142Z" fill="#2D2D2D"/>
<path d="M96.7025 1.08914V29.0702H92.613V1.08914H96.7025Z" fill="#2D2D2D"/>
<path d="M112.639 23.25L115.893 25.4196C114.843 26.9736 112.312 29.6512 107.938 29.6512C102.514 29.6512 98.4631 25.4583 98.4631 20.1032C98.4631 14.4252 102.548 10.5552 107.469 10.5552C112.424 10.5552 114.847 14.4984 115.639 16.6292L116.074 17.714L103.31 23.0003C104.288 24.9159 105.807 25.8931 107.938 25.8931C110.073 25.8931 111.554 24.8427 112.639 23.25ZM102.622 19.8148L111.154 16.2719C110.684 15.0795 109.272 14.2487 107.611 14.2487C105.48 14.2487 102.514 16.1299 102.622 19.8148Z" fill="#2D2D2D"/>
<path d="M15.0366 17.6238V13.573H28.6871C28.8205 14.279 28.8894 15.1141 28.8894 16.0181C28.8894 19.0573 28.0586 22.8153 25.381 25.4929C22.7766 28.2049 19.449 29.6513 15.0409 29.6513C6.87043 29.6513 0 22.9961 0 14.8257C0 6.65519 6.87043 0 15.0409 0C19.5609 0 22.7809 1.77357 25.2002 4.08524L22.3418 6.94361C20.607 5.31641 18.2566 4.0508 15.0366 4.0508C9.07018 4.0508 4.40379 8.85924 4.40379 14.8257C4.40379 20.7921 9.07018 25.6005 15.0366 25.6005C18.9066 25.6005 21.1107 24.0465 22.5226 22.6345C23.6677 21.4895 24.421 19.8537 24.7181 17.6195L15.0366 17.6238Z" fill="#2D2D2D"/>
</svg>
