<svg width="118" height="31" viewBox="0 0 118 31" fill="none" xmlns="http://www.w3.org/2000/svg">
<path fill-rule="evenodd" clip-rule="evenodd" d="M3.22702 0.0338987C1.67211 0.254707 0.405776 1.42954 0.0677441 2.96491C-0.00115528 3.27788 -0.007007 4.4193 0.00488523 15.2493L0.0180044 27.1888L0.12527 27.5342C0.528898 28.8343 1.44941 29.7409 2.7787 30.1477L3.13264 30.256L14.7653 30.2697C22.4712 30.2788 26.5517 30.2672 26.8534 30.2351C28.3651 30.0747 29.5632 29.1229 30.0643 27.6843L30.2205 27.2359V15.1786C30.2205 1.57564 30.2597 2.94103 29.8438 2.08295C29.374 1.11397 28.5137 0.410627 27.4126 0.0952947C27.1174 0.010775 26.6604 0.00718841 15.308 0.000581619C8.8192 -0.00319369 3.38275 0.0118132 3.22702 0.0338987ZM15.6275 4.14568C15.735 4.20514 15.8876 4.34582 15.9666 4.45837L16.1103 4.66299L16.1232 12.2685C16.1378 20.7696 16.1634 20.1214 15.8002 20.4323C15.3695 20.801 14.7988 20.7823 14.4025 20.3865C14.2839 20.2681 14.1846 20.1139 14.1542 20.0009C14.1188 19.8695 14.1072 17.5274 14.1159 12.2421L14.1282 4.67158L14.2579 4.4756C14.561 4.01765 15.1425 3.87759 15.6275 4.14568ZM10.4289 4.58593C10.6833 4.67569 10.8804 4.85577 10.9949 5.1032C11.0787 5.28422 11.0824 5.57907 11.0833 12.29L11.0844 19.288L10.986 19.4808C10.8665 19.7151 10.6898 19.8874 10.4761 19.9781C10.2848 20.0594 9.88865 20.0666 9.69223 19.9925C9.49535 19.9182 9.24887 19.6737 9.14481 19.4494C9.06072 19.2682 9.05723 18.9806 9.05723 12.2763C9.05723 5.57752 9.06081 5.28422 9.14463 5.1032C9.36836 4.61996 9.90861 4.40236 10.4289 4.58593ZM20.5278 4.58593C20.7823 4.67569 20.9793 4.85577 21.0939 5.1032C21.1777 5.28422 21.1813 5.57907 21.1823 12.29L21.1833 19.288L21.0849 19.4808C20.9655 19.7151 20.7888 19.8874 20.5751 19.9781C20.3837 20.0594 19.9876 20.0666 19.7912 19.9925C19.5943 19.9182 19.3478 19.6737 19.2438 19.4494C19.1597 19.2682 19.1562 18.9806 19.1562 12.2763C19.1562 5.57752 19.1598 5.28422 19.2436 5.1032C19.4673 4.61996 20.0076 4.40236 20.5278 4.58593ZM5.44544 6.63054C5.68182 6.73795 5.92028 7.00491 5.98781 7.2378C6.024 7.36262 6.03519 8.84396 6.02532 12.2089L6.01131 17.0024L5.88257 17.1968C5.58149 17.6518 4.95507 17.7936 4.49269 17.5114C4.32327 17.4079 4.23215 17.3072 4.13545 17.1165L4.00568 16.8605V12.1012C4.00568 6.89302 3.99161 7.16215 4.27953 6.85513C4.55999 6.55603 5.06658 6.45844 5.44544 6.63054ZM25.6433 6.63054C25.8797 6.73795 26.1182 7.00491 26.1857 7.2378C26.2219 7.36262 26.2331 8.84396 26.2232 12.2089L26.2092 17.0024L26.0805 17.1968C25.7794 17.6518 25.153 17.7936 24.6906 17.5114C24.5212 17.4079 24.4301 17.3072 24.3334 17.1165L24.2036 16.8605V12.1012C24.2036 6.89302 24.1895 7.16215 24.4774 6.85513C24.7579 6.55603 25.2645 6.45844 25.6433 6.63054ZM89.0681 9.64098C87.5285 9.88345 86.2237 10.9843 85.7486 12.4415C85.4703 13.2953 85.3601 14.5802 85.4484 15.9416C85.5119 16.9185 85.6145 17.4798 85.8325 18.0435C86.2977 19.2456 87.3781 20.2102 88.6198 20.532C89.0441 20.642 90.048 20.6825 90.4719 20.6067C91.3903 20.4426 92.1425 20.0532 92.7987 19.4022C93.2179 18.9862 93.5105 18.5392 93.593 18.1885C93.6364 18.0039 93.5417 17.6362 93.4044 17.4562C93.2125 17.2046 92.9554 17.1004 92.5788 17.1217C92.1675 17.1449 91.9701 17.292 91.7296 17.7541C91.3598 18.4646 90.8926 18.8011 90.1211 18.9127C89.6074 18.9869 89.2536 18.9296 88.7784 18.6953C87.9911 18.3071 87.5852 17.6353 87.4404 16.4811C87.3685 15.907 87.3813 14.1496 87.4614 13.6185C87.624 12.5398 88.0092 11.9601 88.839 11.5459C89.6659 11.1329 90.7687 11.3113 91.355 11.9528C91.4886 12.099 91.6522 12.3272 91.7186 12.4599C91.8625 12.7474 91.9913 12.8964 92.1827 12.9961C92.7463 13.2899 93.3864 13.0395 93.555 12.4592C93.6216 12.2302 93.6217 12.1811 93.5561 11.9555C93.3539 11.2602 92.5998 10.4733 91.7213 10.0413C91.0857 9.72861 90.7327 9.64867 89.9176 9.63262C89.5282 9.62493 89.146 9.62871 89.0681 9.64098ZM99.3086 9.67793C98.7765 9.78331 98.2409 9.99265 97.8245 10.258C96.7675 10.9316 96.1549 11.9249 95.9006 13.3779C95.7963 13.9742 95.7839 16.1681 95.8812 16.8067C96.1444 18.5325 97.0151 19.7182 98.4616 20.3204C99.0605 20.5697 99.6307 20.6652 100.37 20.6402C101.649 20.597 102.566 20.2126 103.392 19.374C104.361 18.3891 104.721 17.0777 104.646 14.801C104.596 13.2792 104.421 12.4487 103.993 11.6972C103.467 10.774 102.531 10.0551 101.456 9.749C100.997 9.61823 99.8087 9.57892 99.3086 9.67793ZM45.888 9.86282C45.6029 9.99619 45.3861 10.2103 45.241 10.5018L45.133 10.719L45.12 15.0828C45.1112 18.0149 45.1233 19.5254 45.1568 19.6867C45.3289 20.5157 46.3973 20.7393 46.8784 20.047L47.0206 19.8424L47.0334 16.4959C47.0403 14.6552 47.0616 13.1499 47.0805 13.1506C47.0995 13.1513 48.0786 14.6909 49.2563 16.5718C50.6307 18.767 51.4624 20.0503 51.5785 20.1552C51.8119 20.3661 52.2053 20.4841 52.5656 20.4514C53.0411 20.4083 53.4264 20.1325 53.6341 19.6863L53.7444 19.4494L53.7449 14.9765C53.7453 11.0453 53.7366 10.4824 53.6723 10.3288C53.3738 9.61431 52.3849 9.53914 51.9757 10.1998L51.8341 10.4283L51.8105 13.6946L51.7869 16.9609L49.6869 13.6285C48.5319 11.7956 47.5005 10.2086 47.395 10.1019C47.0429 9.74598 46.3671 9.63876 45.888 9.86282ZM65.848 9.84027C65.59 9.95744 65.4204 10.1723 65.3587 10.4604C65.2966 10.7496 65.2896 19.4309 65.3511 19.7494C65.395 19.9769 65.5055 20.1485 65.703 20.2959C65.8311 20.3916 65.8856 20.3934 69.0034 20.4064C71.7721 20.418 72.198 20.4104 72.3661 20.3466C72.7391 20.2051 72.9854 19.8113 72.9304 19.4445C72.8768 19.0869 72.6112 18.7963 72.2644 18.7159C72.1625 18.6923 70.9906 18.6725 69.66 18.6718L67.2408 18.6707L67.2532 17.196L67.2657 15.7213L69.4837 15.6977C71.6666 15.6744 71.7043 15.6724 71.8687 15.5702C72.303 15.3001 72.3821 14.6162 72.0191 14.2686C71.7385 13.9998 71.7285 13.9988 69.3908 13.9988H67.2421V12.7482V11.4976L69.7315 11.4966C72.0507 11.4956 72.2337 11.4896 72.4096 11.4084C72.638 11.303 72.7818 11.1536 72.8792 10.9204C72.965 10.7151 72.9686 10.6379 72.903 10.4019C72.8378 10.1672 72.6442 9.94597 72.4115 9.84027C72.2327 9.759 72.0279 9.75362 69.1298 9.75362C66.2316 9.75362 66.0268 9.759 65.848 9.84027ZM108.199 9.81389C107.707 9.95263 107.275 10.4282 107.167 10.951C107.133 11.1158 107.121 12.5744 107.129 15.4868C107.142 19.7732 107.143 19.78 107.244 19.9685C107.368 20.2002 107.472 20.2973 107.697 20.3914C108.175 20.5912 108.72 20.3643 108.941 19.8741C108.964 19.8222 108.993 18.1985 109.006 16.2658L109.03 12.752L110.253 16.1243C110.926 17.979 111.524 19.5921 111.582 19.7089C111.848 20.2435 112.432 20.4684 112.947 20.2344C113.334 20.0589 113.331 20.0655 114.688 16.3816C115.387 14.4871 115.976 12.9168 115.998 12.8921C116.02 12.8675 116.038 14.4057 116.038 16.3104C116.038 19.743 116.039 19.7753 116.138 19.9803C116.278 20.2697 116.524 20.4216 116.898 20.4498C117.148 20.4687 117.228 20.4543 117.407 20.3583C117.523 20.2957 117.683 20.1539 117.76 20.0434L117.902 19.8424L117.916 15.493C117.929 11.6251 117.922 11.1124 117.855 10.8605C117.553 9.72932 116.171 9.38463 115.388 10.2455C115.171 10.4841 115.13 10.584 113.918 13.8376C113.233 15.6782 112.649 17.2313 112.62 17.2888C112.576 17.3791 112.41 16.9644 111.418 14.2686C110.785 12.5499 110.202 10.9766 110.123 10.7725C109.869 10.1195 109.436 9.79822 108.771 9.7683C108.571 9.75933 108.321 9.77925 108.199 9.81389ZM40.6722 9.90492C40.5494 9.96697 40.4032 10.0961 40.32 10.2157L40.1779 10.4203V15.1236V19.8269L40.3194 20.0358C40.6542 20.5299 41.3405 20.6026 41.7748 20.1901C42.0852 19.8952 42.064 20.2352 42.0803 15.2965C42.091 12.0475 42.0801 10.7443 42.0408 10.5626C41.9076 9.9463 41.2321 9.62172 40.6722 9.90492ZM56.0692 9.83885C55.8917 9.88996 55.6275 10.1307 55.5529 10.3093C55.3755 10.7339 55.5467 11.2575 55.93 11.4623C56.1192 11.5635 56.1877 11.5691 57.3909 11.5837L58.6533 11.5989V15.7323V19.8658L58.7733 20.0706C58.9389 20.3532 59.1982 20.4837 59.5971 20.4853C59.9629 20.4867 60.2189 20.3637 60.4002 20.0992L60.5173 19.9282L60.5299 15.7635L60.5424 11.5988L61.8277 11.5836C63.2385 11.5669 63.28 11.5592 63.5279 11.2645C63.8999 10.8225 63.7696 10.1425 63.2662 9.89883C63.061 9.79949 63.0333 9.79878 59.6176 9.80346C57.7246 9.80605 56.1278 9.82196 56.0692 9.83885ZM75.8337 9.90279C75.7184 9.96235 75.5591 10.0927 75.4797 10.1925L75.3354 10.3738L75.323 15.0891C75.3109 19.6567 75.3133 19.81 75.4009 19.9808C75.5226 20.218 75.6746 20.3519 75.9208 20.4388C76.2825 20.5664 76.6227 20.506 76.8964 20.2656C77.2262 19.9761 77.2205 20.0108 77.2467 18.128L77.2703 16.4291H78.4669H79.6635L80.4839 18.2696C81.3586 20.2318 81.3983 20.2977 81.7724 20.4098C82.4288 20.6065 83.004 20.1949 83.004 19.5287C83.004 19.3153 82.9136 19.0805 82.302 17.7055L81.6 16.1272L81.9973 15.9042C82.7083 15.5052 83.2228 14.8275 83.4301 14.0172C83.5434 13.5741 83.5535 12.8068 83.4524 12.3235C83.2709 11.4564 82.6202 10.6198 81.8242 10.2304C81.0153 9.8346 80.9748 9.82974 78.3557 9.81101L76.0433 9.79449L75.8337 9.90279ZM100.819 11.4204C101.475 11.5962 102.078 12.076 102.339 12.6302C102.641 13.2722 102.759 14.1838 102.715 15.5561C102.682 16.5867 102.583 17.1319 102.331 17.6541C101.647 19.0761 99.757 19.3832 98.6007 18.2602C98.2422 17.9121 97.9815 17.3341 97.8704 16.6415C97.786 16.1151 97.7574 14.7759 97.8175 14.1639C97.8898 13.4269 97.9763 13.0658 98.1841 12.634C98.465 12.0499 99.0062 11.6069 99.6626 11.4237C99.9474 11.3443 100.528 11.3426 100.819 11.4204ZM80.3863 11.5236C81.1125 11.7127 81.581 12.2756 81.6252 13.0118C81.6578 13.5548 81.5553 13.8509 81.2192 14.1851C81.003 14.4 80.8895 14.4715 80.6317 14.5554C80.3294 14.6538 80.2306 14.6594 78.803 14.6594H77.2939V13.0549V11.4504H78.6997C79.8171 11.4504 80.1631 11.4654 80.3863 11.5236ZM5.21349 21.2184C5.26786 21.2188 5.60409 21.4084 5.96077 21.6399C7.8782 22.8843 10.0024 23.658 12.5001 24.0217C14.0622 24.2491 16.2416 24.2502 17.7856 24.0244C20.5414 23.6213 22.767 22.7566 24.6564 21.3548C25.0979 21.0272 25.7615 21.1717 26.0641 21.6613C26.2576 21.9742 26.2854 22.3548 26.1371 22.6611C25.8331 23.2891 23.6544 24.5115 21.5262 25.2482C19.4222 25.9765 16.4214 26.3679 14.0373 26.2251C10.626 26.0207 7.73073 25.1712 5.32826 23.6698C4.22257 22.9788 4.00568 22.7434 4.00568 22.234C4.00568 21.9343 4.08293 21.7247 4.26207 21.538C4.46268 21.329 4.84011 21.1597 5.02029 21.1978C5.0722 21.2088 5.15913 21.2181 5.21349 21.2184Z" fill="#2D2D2D"/>
</svg>
