<svg width="70" height="64" viewBox="0 0 70 64" fill="none" xmlns="http://www.w3.org/2000/svg">
<path d="M57.5539 20.7437C56.809 20.481 56.0577 20.2377 55.3008 20.014C55.428 19.4801 55.545 18.9527 55.6489 18.4345C57.3546 9.92589 56.2395 3.07116 52.4308 0.814257C48.7791 -1.34936 42.8069 0.906703 36.7754 6.30085C36.181 6.83342 35.5998 7.38134 35.0323 7.94408C34.6524 7.56987 34.2657 7.20293 33.8726 6.84344C27.5513 1.07586 21.2152 -1.35498 17.4106 0.908389C13.7621 3.07875 12.6818 9.52267 14.2174 17.5865C14.3702 18.3851 14.5427 19.1797 14.7347 19.9693C13.8379 20.2312 12.9724 20.5099 12.1442 20.8066C4.73293 23.462 0 27.6231 0 31.9394C0 36.3973 5.08102 40.8687 12.8002 43.58C13.426 43.7989 14.057 44.0017 14.6926 44.1883C14.4862 45.0388 14.3029 45.895 14.143 46.756C12.679 54.6799 13.8223 60.9715 17.4609 63.1281C21.219 65.3552 27.5267 63.0663 33.6684 57.5491C34.1664 57.1005 34.6534 56.6393 35.1291 56.1657C35.7436 56.7751 36.3746 57.3667 37.0212 57.9399C42.9707 63.2006 48.8463 65.3249 52.4814 63.1624C56.236 60.9288 57.4563 54.1699 55.872 45.9467C55.7472 45.3025 55.6073 44.6615 55.4523 44.0242C55.8953 43.8893 56.33 43.7505 56.7539 43.6061C64.7787 40.874 70 36.4569 70 31.9394C70 27.6074 65.1142 23.4181 57.5539 20.7437ZM55.8135 40.6894C55.4307 40.8195 55.038 40.9451 54.6377 41.0674C53.7518 38.1852 52.5563 35.1208 51.0932 31.9543C52.4893 28.8634 53.6389 25.838 54.4999 22.9747C55.2161 23.1877 55.9109 23.4122 56.5808 23.6491C63.0585 25.9409 67.0097 29.3288 67.0097 31.9394C67.0097 34.7201 62.7424 38.33 55.8135 40.6894ZM52.9386 46.5436C53.6391 50.1796 53.7389 53.4671 53.2749 56.0373C52.8582 58.3468 52.0198 59.8863 50.983 60.5031C48.7771 61.8153 44.0595 60.1097 38.9717 55.6105C38.3702 55.0776 37.7833 54.5276 37.2116 53.9611C39.1841 51.7444 41.1553 49.1674 43.0793 46.3053C46.4633 45.9967 49.6604 45.4921 52.5596 44.8034C52.6993 45.3803 52.8256 45.9605 52.9386 46.5436ZM23.8645 60.2763C21.7093 61.0583 19.9927 61.0808 18.955 60.466C16.747 59.1574 15.829 54.1055 17.0811 47.3292C17.2299 46.5285 17.4003 45.7321 17.5921 44.9411C20.4594 45.593 23.6332 46.0617 27.0252 46.3443C28.9622 49.1449 30.9903 51.7191 33.0343 53.9732C32.5999 54.4051 32.1552 54.826 31.7007 55.2354C28.9846 57.6749 26.2631 59.4058 23.8645 60.2763ZM13.7676 40.6723C10.3543 39.4733 7.53539 37.9152 5.60328 36.215C3.86695 34.6872 2.99059 33.1702 2.99059 31.9394C2.99059 29.32 6.79055 25.9791 13.1286 23.7084C13.8977 23.433 14.7027 23.1731 15.5381 22.9292C16.4142 25.8571 17.5632 28.9185 18.9498 32.0142C17.5451 35.1556 16.3797 38.2659 15.4952 41.2284C14.915 41.0576 14.3389 40.8722 13.7676 40.6723ZM17.1522 16.9961C15.8367 10.0875 16.7103 4.87596 18.909 3.56795C21.2507 2.17481 26.4291 4.16112 31.8872 9.14137C32.2431 9.46686 32.5933 9.79895 32.9375 10.1375C30.9036 12.3817 28.8941 14.9368 26.9743 17.7208C23.6821 18.0344 20.5308 18.5379 17.6334 19.2126C17.4549 18.4781 17.2945 17.7392 17.1522 16.9964V16.9961ZM47.3471 24.6581C46.6627 23.4434 45.953 22.244 45.2184 21.0606C47.4518 21.3509 49.5917 21.7361 51.6012 22.2071C50.998 24.1942 50.2461 26.2716 49.3609 28.4015C48.714 27.1401 48.0425 25.892 47.3471 24.6581ZM35.0336 12.3337C36.4129 13.8693 37.7943 15.5836 39.153 17.4438C36.3967 17.31 33.6359 17.3094 30.8796 17.4421C32.2396 15.5991 33.6328 13.887 35.0336 12.3337ZM22.6412 24.6792C21.9544 25.9032 21.2955 27.1434 20.665 28.399C19.7944 26.2766 19.0493 24.1897 18.4409 22.1745C20.4381 21.7154 22.5679 21.3399 24.7871 21.055C24.0443 22.2456 23.3288 23.4539 22.6412 24.6789V24.6792ZM24.8508 43.0424C22.558 42.7794 20.3962 42.4234 18.3996 41.9766C19.0176 39.9254 19.7791 37.7941 20.6686 35.6263C21.3016 36.8828 21.9632 38.1238 22.6529 39.3483C23.3622 40.6071 24.0967 41.8401 24.8508 43.0424ZM35.1162 51.7615C33.6987 50.1902 32.285 48.4518 30.9045 46.5821C32.2448 46.636 33.6112 46.6635 35 46.6635C36.4268 46.6635 37.8372 46.6307 39.2254 46.5672C37.8623 48.4706 36.4861 50.2116 35.1162 51.7615ZM49.3891 35.5156C50.3248 37.7073 51.1134 39.8273 51.7396 41.8434C49.7101 42.3194 47.5188 42.7027 45.2099 42.9874C45.9497 41.7821 46.6662 40.5618 47.3588 39.3272C48.063 38.0723 48.7399 36.8014 49.3891 35.5156ZM44.7686 37.7919C43.7082 39.6847 42.5883 41.5416 41.4105 43.3597C39.277 43.5149 37.1388 43.5921 35 43.5909C32.8215 43.5909 30.7027 43.5212 28.6623 43.3852C27.4537 41.5714 26.3124 39.7112 25.2407 37.8087H25.241C24.1744 35.9163 23.1781 33.9829 22.2543 32.0128C23.1757 30.0422 24.169 28.1079 25.232 26.214L25.2317 26.2143C26.2943 24.3199 27.4265 22.4677 28.6259 20.6616C30.7076 20.4998 32.8423 20.4155 34.9997 20.4155H35C37.1673 20.4155 39.3047 20.5006 41.3859 20.6636C42.5731 22.467 43.6981 24.3128 44.7587 26.1977C45.8252 28.0874 46.8316 30.0123 47.7764 31.9692C46.8414 33.9462 45.8381 35.8883 44.7686 37.7919ZM50.9373 3.47635C53.2812 4.86556 54.1928 10.4676 52.7201 17.8141C52.6261 18.2828 52.5205 18.7602 52.4057 19.2443C49.5012 18.5553 46.3477 18.0431 43.0459 17.7247C41.1225 14.9101 39.1295 12.3511 37.1287 10.1358C37.6531 9.61638 38.1899 9.11045 38.7387 8.61845C43.9067 3.99702 48.7367 2.17228 50.9373 3.47635ZM35 25.516C38.4521 25.516 41.2508 28.3919 41.2508 31.9394C41.2508 35.4869 38.4521 38.3628 35 38.3628C31.5479 38.3628 28.7492 35.4869 28.7492 31.9394C28.7492 28.3919 31.5479 25.516 35 25.516Z" fill="#00D8FF"/>
</svg>
