<svg width="87" height="31" viewBox="0 0 87 31" fill="none" xmlns="http://www.w3.org/2000/svg">
<path fill-rule="evenodd" clip-rule="evenodd" d="M84.7148 0.361806C83.9858 0.557741 79.9766 1.63048 75.8053 2.74571C71.6341 3.86101 67.0947 5.07527 65.7178 5.44417C64.3409 5.81306 60.5635 6.82358 57.3237 7.68986C39.7471 12.3896 24.7051 16.4142 22.7904 16.9296C20.1881 17.6299 19.1253 17.7852 17.4153 17.7148C14.7663 17.6056 12.6072 16.7793 11.0565 15.2813C9.42449 13.7047 8.67823 11.6446 8.78647 9.01457C8.8696 6.99485 9.41978 4.91836 10.5022 2.53939C10.759 1.97486 10.9616 1.50604 10.9524 1.4975C10.9432 1.48888 10.5304 1.97037 10.035 2.56737C4.283 9.4987 0.87569 15.5951 0.114705 20.3171C-0.0510401 21.3453 -0.0350618 23.0236 0.149018 23.927C0.531167 25.802 1.5221 27.2225 3.35259 28.5192C7.07026 31.1527 11.6247 31.4369 17.7548 29.4179C20.1259 28.637 23.0247 27.4546 33.7984 22.8736C35.2765 22.245 37.9439 21.1118 39.7257 20.3551C41.5076 19.5984 43.1809 18.8862 43.4442 18.7723C43.7074 18.6584 45.9605 17.6961 48.4511 16.6339C54.8782 13.8928 67.0195 8.70193 80.7387 2.8298C83.7355 1.54706 86.25 0.436834 86.3265 0.362687C86.4999 0.194586 86.434 -0.00723721 86.2081 0.000199606C86.1158 0.00321851 85.4437 0.165946 84.7148 0.361806Z" fill="#2D2D2D"/>
</svg>
