<svg width="114" height="18" viewBox="0 0 114 18" fill="none" xmlns="http://www.w3.org/2000/svg">
<path fill-rule="evenodd" clip-rule="evenodd" d="M4.98791 0.0179916C2.99988 0.173475 1.57121 0.844914 0.816635 1.97834C0.355479 2.67107 0.156732 3.37561 0.126997 4.4231C0.110137 5.01697 0.139664 5.37827 0.240703 5.81472C0.491069 6.89614 1.21508 7.77798 2.61419 8.70568C3.11326 9.03657 3.46416 9.24317 4.62375 9.8888C6.07617 10.6974 6.51488 10.9896 6.98811 11.4635C7.33482 11.8106 7.48768 12.0553 7.56639 12.3892C7.65991 12.7859 7.59954 13.3388 7.42185 13.713C7.17475 14.2332 6.71214 14.4778 5.97668 14.4769C5.12704 14.4758 4.56627 14.0998 4.3868 13.4107C4.35076 13.2724 4.34127 13.0481 4.34127 12.3353V11.4346H2.17064H0V12.1876C0 12.999 0.0309538 13.4318 0.120009 13.8657C0.476737 15.6032 1.70594 16.7361 3.72264 17.186C5.16915 17.5087 7.03545 17.4731 8.38927 17.0971C9.23891 16.861 9.919 16.4937 10.4467 15.9857C11.1344 15.3239 11.4682 14.6063 11.6164 13.4714C11.6886 12.9188 11.6882 11.7511 11.6157 11.2859C11.4192 10.025 10.6918 9.07897 9.13912 8.06486C8.6251 7.72913 8.16727 7.46666 7.00253 6.83991C5.5675 6.06776 5.0459 5.72798 4.66708 5.31871C4.36461 4.9919 4.25207 4.69229 4.25207 4.21383C4.25207 3.2953 4.80531 2.75103 5.73762 2.75249C6.37281 2.75347 6.83599 2.98852 7.0708 3.42907C7.23077 3.72921 7.25528 3.88294 7.25528 4.58697V5.22002H9.27724H11.2992L11.2989 4.60303C11.2985 3.40103 11.1961 2.80726 10.8805 2.17548C10.2885 0.990525 9.04706 0.286853 7.1493 0.0605121C6.68038 0.00458103 5.46498 -0.0193255 4.98791 0.0179916ZM57.5962 0.106572C55.4179 0.276149 53.9363 1.04449 53.2456 2.36269C53.1007 2.63929 52.9537 3.03274 52.8857 3.32598C52.6953 4.14743 52.7001 5.21577 52.8975 5.96866C53.1628 6.98017 53.9389 7.88334 55.3066 8.77223C55.7154 9.03794 56.1451 9.28952 57.0336 9.78344C57.4657 10.0236 58.0214 10.3411 58.2684 10.489C59.2813 11.0951 59.8575 11.6339 60.0674 12.1709C60.1602 12.4083 60.1804 12.9442 60.109 13.2701C59.9764 13.8752 59.6566 14.2173 59.0829 14.3682C58.8245 14.4361 58.2732 14.4369 58.0207 14.3697C57.5954 14.2566 57.2406 13.99 57.0814 13.6642C56.9376 13.3698 56.9134 13.1656 56.9128 12.2449L56.9123 11.4049H54.7681H52.624L52.6392 12.3787C52.6519 13.1854 52.6649 13.4086 52.7151 13.6796C53.0375 15.4182 54.1731 16.5548 56.0756 17.043C57.5802 17.429 59.5688 17.4092 61.0026 16.994C61.858 16.7462 62.4712 16.4021 63.012 15.8663C63.8635 15.0228 64.1807 14.0486 64.1794 12.282C64.1788 11.5345 64.1463 11.2292 64.017 10.7538C63.7649 9.82674 62.9375 8.88724 61.6252 8.03799C61.1878 7.75488 60.6684 7.45881 59.6102 6.88924C58.1257 6.0903 57.6182 5.76013 57.2393 5.34658C56.873 4.94679 56.7486 4.46131 56.8681 3.89734C57.0169 3.19482 57.5299 2.81273 58.3247 2.81246C58.9207 2.81228 59.3936 3.05896 59.6291 3.49294C59.7793 3.76986 59.8023 3.90471 59.8181 4.60303L59.8328 5.24976H61.8218H63.8107V4.56702C63.8107 4.19153 63.7959 3.74661 63.7778 3.57834C63.5641 1.59346 62.2017 0.44644 59.7074 0.151145C59.2249 0.0940539 58.0702 0.0696707 57.5962 0.106572ZM106.435 0.094588C106.058 0.132321 105.436 0.235591 105.119 0.31308C104.172 0.544862 103.464 0.920739 102.879 1.50199C102.203 2.17436 101.87 2.89391 101.689 4.07524C101.638 4.40993 101.615 12.186 101.663 12.8024C101.707 13.3643 101.76 13.666 101.885 14.0661C102.512 16.0698 104.606 17.1619 107.655 17.0746C110.745 16.9862 112.62 15.7156 112.993 13.4565C113.092 12.8537 113.111 12.2996 113.111 9.93485V7.62854H110.242H107.372V8.81793V10.0073H108.205H109.037L109.037 11.4123C109.036 12.9465 109.024 13.0855 108.869 13.3714C108.601 13.8636 108.116 14.1333 107.446 14.162C106.553 14.2002 105.917 13.7978 105.715 13.0669C105.666 12.8892 105.662 12.599 105.662 8.65439C105.662 4.67641 105.666 4.4187 105.716 4.20149C105.904 3.40267 106.466 2.98088 107.342 2.98088C107.877 2.98088 108.243 3.11385 108.55 3.41985C108.91 3.77842 108.977 4.01247 108.999 4.98958L109.015 5.69578H111.048H113.081V5.17973C113.081 3.39256 112.75 2.35803 111.908 1.51784C111.176 0.788121 110.263 0.383135 108.844 0.15944C108.525 0.109129 108.292 0.097146 107.506 0.0906043C106.983 0.0862631 106.501 0.0880463 106.435 0.094588ZM67.9564 0.532135C67.9479 0.554347 67.9459 3.39446 67.9519 6.84354C67.9617 12.4314 67.9681 13.1491 68.0109 13.4309C68.1768 14.5228 68.4991 15.2103 69.145 15.8507C70.008 16.7061 71.1995 17.1308 73.0356 17.2373C74.2738 17.3092 75.5378 17.164 76.4684 16.8432C78.1849 16.2513 79.1209 15.0173 79.2716 13.1475C79.2917 12.8987 79.3025 10.6092 79.3025 6.62811V0.492201H77.2663H75.23L75.222 6.8034L75.214 13.1146L75.1476 13.31C74.9789 13.806 74.6481 14.1245 74.1423 14.2782C73.8738 14.3598 73.3158 14.3515 73.0594 14.2621C72.6029 14.1028 72.318 13.8274 72.1261 13.3598L72.0621 13.2038L72.0473 6.85544L72.0324 0.507069L70.0021 0.499426C68.3147 0.493063 67.9693 0.498595 67.9564 0.532135ZM17.2932 0.603706C17.2417 0.850416 14.3321 16.6829 14.3321 16.7167C14.3321 16.7504 14.6933 16.7571 16.5014 16.7571H18.6707L18.6875 16.6605C18.7221 16.4614 20.8738 2.07486 20.8738 2.04248C20.8738 2.02387 20.9005 2.00867 20.9333 2.00867C20.966 2.00867 20.9927 2.02544 20.9927 2.04593C20.9927 2.08227 23.0864 16.4687 23.1196 16.6605L23.1363 16.7571H25.3062H27.476L27.4605 16.6902C27.4409 16.6054 24.5014 0.561008 24.5014 0.538558C24.5014 0.52943 22.8834 0.521936 20.9059 0.521936H17.3103L17.2932 0.603706ZM31.0616 0.737393C31.0472 0.927814 30.7126 16.258 30.715 16.6159L30.716 16.7571H32.7379H34.7599L34.7601 15.5157C34.7607 12.4335 34.8518 2.17254 34.8788 2.14554C34.8946 2.12969 34.9157 2.12479 34.9255 2.13466C34.9354 2.14453 35.5445 5.40851 36.2791 9.38794C37.0137 13.3674 37.6216 16.6534 37.63 16.6902L37.6453 16.7571H39.6923H41.7394L41.7702 16.601C41.7871 16.5151 42.3931 13.2335 43.1168 9.30855C43.8405 5.38357 44.444 2.15952 44.4579 2.14397C44.4739 2.12612 44.4927 2.12612 44.509 2.14397C44.5283 2.16511 44.6376 14.8341 44.6327 16.4821L44.6318 16.7571H46.6551H48.6783L48.6605 16.2293C48.6507 15.939 48.577 12.5705 48.4969 8.74359C48.4167 4.91673 48.3424 1.50134 48.3317 1.1538L48.3124 0.521936L45.0225 0.521965L41.7327 0.522025L40.737 6.72529C39.7982 12.5742 39.7203 13.0215 39.6536 12.9473C39.6481 12.9412 39.1962 10.1463 38.6494 6.7365L37.6552 0.536803L34.3666 0.52925L31.0779 0.521669L31.0616 0.737393ZM83.8222 8.56518V16.6084H85.7996H87.7769L87.7767 16.2442C87.7766 16.0439 87.7298 13.1369 87.6728 9.78431C87.6158 6.43172 87.5691 3.61845 87.569 3.53258C87.5687 3.28733 87.6393 3.32667 87.729 3.62178C87.77 3.75672 88.1794 5.11149 88.6389 6.63242C89.0984 8.15336 89.9644 11.0202 90.5634 13.0032L91.6527 16.6087L94.5244 16.6011L97.3961 16.5936L97.4036 8.55775L97.4111 0.521936H95.4032H93.3954L93.4124 1.12406C93.4218 1.45525 93.4683 4.09456 93.5159 6.98924C93.5634 9.88392 93.6088 12.4831 93.6169 12.7652C93.6303 13.2381 93.6274 13.2781 93.5798 13.2781C93.5367 13.2781 93.2245 12.2339 91.6887 6.95207C90.6769 3.47272 89.843 0.602576 89.8355 0.573972C89.8225 0.52485 89.6538 0.521936 86.822 0.521936H83.8222V8.56518Z" fill="#2D2D2D"/>
</svg>
